<svg xmlns="http://www.w3.org/2000/svg" viewBox="0 0 414 338">
<path d="M0 0 C0 50.5 0 101 0 153 C-2.6 151 -5.3 149 -8 147 C-9.5 145.9 -11 144.8 -12.5 143.7 C-17.5 136.9 -17.4 130.2 -16 122 C-14.7 120.7 -13.4 119.4 -12 118 C-11 113.9 -10.7 111.3 -14 108 C-22 108 -22 108 -24 110 C-24 118 -24 118 -20 122 C-20 124.9 -20.2 127.7 -20.4 130.6 C-20.3 140.6 -17.3 142.9 -9.4 148.6 C7.2 163.1 1.4 188.9 0 209 C-9.1 204.4 -16.3 198.6 -17.9 188.2 C-18 184.1 -17.9 180 -17.8 176 C-18 171 -18 171 -23 167 C-23 166.3 -23 165.7 -23 165 C-24.3 164.3 -25.6 163.7 -27 163 C-32.8 158.3 -33.5 155.3 -34 148 C-38.3 145.1 -41.1 145.9 -46 147 C-47 153 -47 153 -45 158 C-43.6 158.1 -42.2 158.3 -40.8 158.4 C-31.7 160.9 -25.9 166.1 -21 174 C-20.6 179.1 -20.6 179.1 -20.9 184.6 C-21.2 195.5 -18.2 198.5 -9.9 205.3 C4.3 217.7 1.9 231.6 0 249 C-4.3 249 -7.9 240.6 -9.9 237.6 C-11.4 235.3 -13 233 -14.5 230.6 C-14.9 230.1 -14.9 230.1 -16.8 227.2 C-19.7 223 -22.6 218.8 -25.6 214.7 C-30.2 208.2 -34.6 201.6 -39 195 C-45.2 185.8 -51.6 176.7 -57.9 167.6 C-58.6 166.7 -58.6 166.7 -62 161.7 C-64.6 158 -67.2 154.4 -69.8 150.7 C-70.9 149.2 -72 147.6 -73.1 145.9 C-74.1 144.5 -75.1 143.2 -76.1 141.7 C-79.9 134.1 -72.9 126.1 -69.1 119.4 C-68.5 118.2 -67.8 117 -67.1 115.8 C-62.1 106.9 -57.1 98.1 -52 89.3 C-48.7 83.4 -45.4 77.6 -42.1 71.7 C-36.3 61.2 -30.3 50.9 -24.2 40.6 C-20.5 34.2 -17 27.8 -13.4 21.3 C-1.5 0 -1.5 0 0 0 Z " fill="currentColor" transform="translate(205,1)"/>
<path d="M0 0 C4.4 4.4 6.6 8.5 9.5 13.9 C14.5 23.3 19.7 32.5 24.9 41.7 C28.1 47.2 31.3 52.8 34.4 58.4 C35.5 60.3 36.6 62.2 37.7 64.2 C39.9 68 42.1 71.9 44.2 75.7 C49.8 85.6 55.4 95.5 61.2 105.3 C63.5 109.2 65.7 113.1 68 117 C69 118.8 70.1 120.5 71.1 122.3 C72.1 123.9 73 125.5 73.9 127.2 C74.8 128.6 75.6 130 76.4 131.4 C80 139.5 73.5 145.6 69 152 C67.2 154.6 65.5 157.2 63.7 159.8 C61.8 162.5 59.9 165.3 58 168 C56.3 170.5 54.5 173 52.8 175.6 C45.6 186.1 38.3 196.5 31 207 C30 208.5 28.9 210 27.8 211.6 C21.2 221 21.2 221 19 221 C15.8 174 15.8 174 35 161 C40.7 155.3 40.6 154.5 40.6 146.9 C40.6 145.1 40.6 143.4 40.6 141.5 C40.6 139.7 40.6 137.8 40.6 135.9 C40.5 132.3 40.5 128.6 40.6 125 C40.6 123.3 40.5 121.7 40.5 120 C41 116 41 116 45 112 C45 105 45 105 41 102 C34 103 34 103 32 106 C33 113 33 113 36 116 C37.2 123.8 37.3 131.7 37.5 139.6 C37.5 140.8 37.5 140.8 37.7 146.7 C36.9 153.9 35.3 156.1 30 161 C28.7 162.3 27.3 163.7 25.9 165.1 C23.6 167.4 21.2 169.7 18.8 172 C15 177.5 15.4 181.2 15.7 187.8 C15.7 190.2 15.7 192.5 15.8 194.9 C15.9 199.7 16 204.6 16.2 209.5 C16.4 226.1 13.6 236.7 2 249 C1.3 249 0.7 249 0 249 C-0.5 238.8 -0.8 228.6 -1 218.4 C-1.1 215 -1.3 211.5 -1.4 208 C-3.1 173.1 -3.1 173.1 14.7 159.8 C21.1 154.1 20.7 149 20.1 140.9 C20 137 20 137 24 133 C25 126 25 126 24 123 C20 121 20 121 14 122 C12 124 12 124 12 132 C13.3 133 14.6 134 16 135 C17.7 145.5 17.5 153.8 9 161 C8.4 161.7 8.4 161.7 5.2 165 C2 168 2 168 0 168 C0 112.6 0 57.1 0 0 Z " fill="currentColor" transform="translate(211,1)"/>
<path d="M0 0 C11.6 -0.2 23.1 0.5 34.7 1 C36.8 1.1 39 1.2 41.2 1.3 C45.8 1.6 50.4 1.8 54.9 2 C61.9 2.4 68.9 2.7 76 3 C80.4 3.3 84.8 3.5 89.3 3.7 C90.3 3.8 90.3 3.8 95.6 4 C96.6 4.1 96.6 4.1 101.5 4.3 C103.2 4.4 105 4.5 106.7 4.6 C116.4 5.5 118.7 10.3 124 18 C125 19.4 125.9 20.8 126.9 22.3 C130.3 27.2 133.7 32.1 137 37 C143.9 47.1 150.9 57.2 157.9 67.3 C164.5 76.8 171.1 86.4 177.6 96 C180 99.5 182.4 103 184.9 106.4 C188 111 188 111 189 115 C168.5 103.4 148.4 91 128.3 78.8 C113.6 69.8 98.8 60.9 84 52 C80.2 49.7 76.3 47.4 72.5 45.1 C69.1 43.1 65.7 41 62.3 39 C53.7 33.9 45.2 28.7 36.6 23.5 C27.8 18.1 18.9 12.7 10 7.4 C-0 1.4 -0 1.4 0 0 Z " fill="currentColor" transform="translate(7,136)"/>
<path d="M0 0 C-4.4 4.4 -8.6 6.9 -14 10 C-16 11.1 -17.9 12.3 -20 13.5 C-22 14.6 -23.9 15.8 -26 17 C-29.5 19.1 -33 21.2 -36.6 23.3 C-38.1 24.2 -39.6 25.1 -41.1 26.1 C-44.8 28.3 -48.5 30.6 -52.2 32.8 C-59.1 37.1 -66.1 41.3 -73.1 45.4 C-84.3 52.2 -95.6 59 -106.8 65.8 C-116.6 71.8 -126.4 77.7 -136.2 83.5 C-142.5 87.3 -148.8 91.2 -155 95 C-159.8 97.9 -164.6 100.9 -169.4 103.8 C-170.7 104.6 -171.9 105.3 -173.2 106.1 C-178.4 109.3 -183.5 112.3 -189 115 C-186.8 109.6 -184.1 105.6 -180.7 100.9 C-174.7 92.5 -168.9 84 -163.1 75.5 C-159.3 70 -155.5 64.4 -151.7 58.9 C-149.9 56.3 -148.2 53.8 -146.4 51.3 C-138.3 39.5 -130.2 27.7 -122 16 C-120.7 14.1 -119.5 12.3 -118.2 10.4 C-113.6 4 -110.3 4.8 -102.8 4.4 C-101.8 4.4 -101.8 4.4 -96.9 4.1 C-94.8 4 -92.7 3.9 -90.5 3.8 C-88.3 3.7 -86.2 3.6 -84 3.5 C-79.4 3.2 -74.8 3 -70.2 2.8 C-63.2 2.4 -56.2 2.1 -49.2 1.7 C-44.7 1.5 -40.3 1.3 -35.8 1.1 C-33.7 1 -31.6 0.8 -29.5 0.7 C-19.6 0.3 -9.9 -0.1 0 0 Z " fill="currentColor" transform="translate(409,136)"/>
<path d="M0 0 C7.1 2.8 13.4 6.9 19.9 10.8 C21.3 11.6 22.7 12.5 24.2 13.3 C34.4 19.4 44.6 25.6 54.8 31.8 C63.1 36.9 71.6 42 80 47 C91.2 53.7 102.3 60.4 113.4 67.2 C123.2 73.2 133 79 142.7 84.8 C152.8 90.9 162.8 96.9 172.9 103 C174.1 103.7 175.3 104.5 176.5 105.2 C192 114.6 192 114.6 192 117 C176.9 117.3 161.8 117.5 146.6 117.6 C139.6 117.6 132.6 117.7 125.6 117.8 C117.5 118 109.4 118 101.4 118.1 C100.1 118.1 100.1 118.1 93.7 118.2 C76.3 118.3 76.3 118.3 69.5 111.7 C69.1 110.8 69.1 110.8 67 106 C66.1 104.6 65.1 103.1 64.2 101.6 C63.7 100.9 63.7 100.9 61.5 97.4 C50.8 80.3 40 63.4 29 46.6 C25.3 41 21.7 35.3 18 29.6 C15.7 26 13.3 22.5 11 18.9 C9.6 16.8 8.2 14.7 6.8 12.6 C5.5 10.6 4.2 8.6 2.9 6.6 C0 2 0 2 0 0 Z " fill="currentColor" transform="translate(3,142)"/>
<path d="M0 0 C-5 12.5 -13.7 23.6 -21.2 34.7 C-26.2 42.4 -31.2 50.1 -36.1 57.9 C-40.2 64.4 -44.4 70.8 -48.6 77.2 C-50.9 80.8 -53.2 84.4 -55.5 88 C-55.9 88.6 -55.9 88.6 -57.7 91.4 C-59.4 94.1 -61.1 96.8 -62.9 99.5 C-63.8 101 -64.8 102.5 -65.8 104.1 C-66.7 105.5 -67.6 106.8 -68.5 108.3 C-74.1 116.7 -76.1 117.6 -86.2 117.6 C-88.5 117.6 -90.9 117.6 -93.3 117.6 C-95.8 117.5 -98.4 117.5 -101 117.5 C-102.3 117.5 -102.3 117.5 -108.8 117.5 C-115.7 117.4 -122.6 117.4 -129.5 117.3 C-136.5 117.3 -143.6 117.3 -150.6 117.2 C-164.4 117.2 -178.2 117.1 -192 117 C-192 112.7 -183.2 109.5 -179.6 107.3 C-178.3 106.5 -177 105.8 -175.7 105 C-171.8 102.7 -167.9 100.3 -164 98 C-159.8 95.5 -155.7 93 -151.5 90.5 C-149.5 89.3 -147.4 88.1 -145.3 86.8 C-133.9 79.9 -122.4 73 -111 66 C-95 56.3 -79 46.6 -63 37 C-46.9 27.4 -30.9 17.7 -15 7.9 C-13.3 6.9 -11.7 5.9 -10 4.8 C-8.5 3.9 -7 3 -5.5 2 C-2 0 -2 0 0 0 Z " fill="currentColor" transform="translate(413,142)"/>
<path d="M0 0 C2.1 -0 4.3 -0 6.5 -0 C7.7 -0 7.7 -0 13.6 0 C16 0 18.4 0 20.8 0 C25.9 0 30.9 0 36 0 C43.8 0.1 51.5 0.1 59.3 0.1 C64.2 0.1 69.1 0.1 74 0.1 C76.3 0.1 78.6 0.1 81.1 0.1 C82.1 0.1 82.1 0.1 87.6 0.1 C89.5 0.1 91.4 0.1 93.4 0.1 C101.4 0.3 101.4 0.3 105.7 7.8 C107.1 10.6 108.5 13.4 109.9 16.2 C110.6 17.6 111.3 18.9 111.9 20.2 C113.9 24.2 115.9 28.2 117.9 32.2 C119.3 34.9 120.6 37.6 121.9 40.2 C122.6 41.5 123.2 42.8 123.9 44.2 C125.3 47 126.8 49.9 128.2 52.7 C133.9 63.9 133.9 63.9 133.9 67.2 C129.2 66.3 125.9 65 121.6 63 C120.9 62.6 120.9 62.6 117.2 60.9 C115.6 60.2 114 59.4 112.4 58.7 C99.6 52.8 86.8 46.9 73.9 41.2 C58.3 34.3 42.7 27.2 27.2 20 C17.8 15.7 8.4 11.5 -1.1 7.2 C-4.7 5.6 -8.4 3.9 -12.1 2.2 C-8.7 -1.1 -4.6 -0 0 0 Z " fill="currentColor" transform="translate(237.07763671875,263.757080078125)"/>
<path d="M0 0 C8.5 -0.1 17.1 -0.1 25.6 -0 C28.6 -0 31.5 -0 34.5 -0 C35.5 -0 35.5 -0 40.9 0 C40.9 0.7 40.9 1.3 40.9 2 C37.5 3.6 34 5.2 30.5 6.6 C19.9 11.2 9.4 15.9 -1.1 20.8 C-4.1 22.1 -7.1 23.5 -10.1 24.9 C-11.6 25.6 -13.1 26.3 -14.7 27 C-34 35.8 -53.3 44.6 -72.7 53.1 C-81.4 57 -90 61 -98.6 65 C-103.1 67 -103.1 67 -106.1 67 C-100.1 48.8 -92.2 31.1 -83 14.2 C-82.4 13 -81.8 11.7 -81.1 10.4 C-75.3 0.2 -68.7 -2.1 -57.5 -3.2 C-52.4 -2.9 -52.4 -2.9 -47.8 -1.9 C-32 0.9 -16.1 0.2 0 0 Z " fill="currentColor" transform="translate(151.14495849609375,263.9930419921875)"/>
<path d="M0 0 C-1.7 5 -3.3 8.5 -6.1 12.9 C-6.9 14.3 -7.7 15.6 -8.5 17 C-9.3 18.3 -10.2 19.6 -11 21 C-17.8 32.3 -24.6 43.7 -31.2 55.2 C-38.9 68.4 -38.9 68.4 -49.4 68.3 C-51.6 68.3 -53.9 68.3 -56.2 68.3 C-58.6 68.3 -61 68.3 -63.5 68.3 C-65.9 68.3 -68.4 68.3 -70.9 68.3 C-77.5 68.3 -84 68.2 -90.6 68.2 C-97.3 68.2 -104 68.2 -110.6 68.1 C-123.8 68.1 -136.9 68.1 -150 68 C-145.9 63.9 -141.1 62.3 -135.9 60.1 C-130.5 57.8 -125.2 55.3 -120 52.9 C-113.6 49.9 -107.2 47 -100.8 44.1 C-99.4 43.4 -98 42.8 -96.5 42.1 C-84.4 36.6 -72.2 31.2 -60 25.8 C-48.8 20.8 -37.8 15.8 -26.7 10.6 C-21.3 8.2 -16 5.7 -10.6 3.2 C-9.2 2.6 -7.8 2 -6.3 1.3 C-3 0 -3 0 0 0 Z " fill="currentColor" transform="translate(200,269)"/>
<path d="M0 0 C7.5 1.5 14.2 4.9 21.1 8.1 C22.7 8.8 24.3 9.5 26 10.2 C38.5 15.8 50.9 21.5 63.3 27.2 C77.2 33.6 91.1 39.8 105 46 C107.6 47.1 110.1 48.3 112.7 49.4 C114 50 115.2 50.6 116.5 51.2 C120.2 52.8 123.8 54.5 127.5 56.1 C132.9 58.5 138.3 60.9 143.8 63.2 C150 66 150 66 151 68 C135.3 68.3 119.6 68.4 104 68.5 C98.6 68.6 93.3 68.7 88 68.8 C80.3 68.9 72.6 68.9 65 69 C62.6 69 60.2 69.1 57.7 69.1 C56.6 69.1 56.6 69.1 51 69.1 C50 69.1 50 69.1 45.1 69.2 C38 67.5 36.5 64.1 33 58 C32 56.4 31.1 54.8 30.1 53.1 C29.2 51.5 28.3 49.8 27.3 48.1 C20.5 36.1 13.4 24.3 6.2 12.5 C0 2.2 0 2.2 0 0 Z " fill="currentColor" transform="translate(216,269)"/>
</svg>