<svg version="1.1" xmlns="http://www.w3.org/2000/svg" width="414" height="338">
<path d="M0 0 C0.33 0 0.66 0 1 0 C1 50.49 1 100.98 1 153 C-1.64 151.02 -4.28 149.04 -7 147 C-7.835 146.426 -8.671 145.853 -9.531 145.262 C-12.48 142.904 -14.613 140.855 -15.408 137.043 C-15.649 134.765 -15.74 132.541 -15.75 130.25 C-15.753 129.505 -15.756 128.759 -15.76 127.991 C-15.614 124.415 -15.324 122.39 -13.008 119.605 C-12.345 119.076 -11.683 118.546 -11 118 C-9.75 115.232 -9.922 114.239 -10.875 111.312 C-12 109 -12 109 -13 108 C-18.736 107.727 -18.736 107.727 -21 108 C-23.561 110.561 -23.315 112.429 -23.461 115.93 C-23 118 -23 118 -20.949 119.723 C-19 122 -19 122 -19.059 125.879 C-19.124 126.623 -19.19 127.367 -19.258 128.133 C-19.591 132.639 -19.605 136.728 -18 141 C-15.882 143.188 -13.596 144.844 -11.138 146.639 C-5.197 151.008 0.012 155.158 1.541 162.651 C3.363 177.932 2.129 193.699 1 209 C-5.819 205.74 -12.385 200.768 -16 194 C-17.106 188.972 -17.09 183.997 -16.866 178.872 C-16.657 173.624 -16.657 173.624 -17 171 C-19.5 168.441 -19.5 168.441 -22 167 C-22 166.34 -22 165.68 -22 165 C-22.536 164.794 -23.072 164.588 -23.625 164.375 C-27.025 162.406 -29.787 160.285 -32 157 C-32.517 154.598 -32.687 152.407 -32.699 149.953 C-32.749 149.631 -32.749 149.631 -33 148 C-36.353 145.764 -36.907 145.827 -40.688 146.375 C-41.496 146.486 -42.304 146.597 -43.137 146.711 C-43.444 146.759 -43.444 146.759 -45 147 C-45.713 150.065 -46.044 152.614 -45.688 155.75 C-45.409 156.121 -45.409 156.121 -44 158 C-42.59 158.197 -41.17 158.333 -39.75 158.438 C-31.834 159.77 -25.833 165.416 -21.172 171.704 C-19.039 175.881 -19.581 180.054 -19.875 184.625 C-20.459 194.194 -20.459 194.194 -17.051 198.412 C-14.415 200.809 -11.709 203.074 -8.938 205.312 C-2.932 210.25 1.318 214.416 2.187 222.309 C2.722 231.218 2.036 240.15 1 249 C0.34 249 -0.32 249 -1 249 C-2.597 246.975 -2.597 246.975 -4.492 244.129 C-5.192 243.088 -5.891 242.046 -6.612 240.973 C-6.796 240.695 -6.796 240.695 -7.731 239.286 C-9.647 236.398 -11.585 233.525 -13.52 230.648 C-13.904 230.075 -14.289 229.502 -14.685 228.911 C-17.905 224.118 -21.21 219.389 -24.562 214.688 C-28.464 209.202 -32.261 203.664 -35.973 198.047 C-42.128 188.795 -48.51 179.694 -54.874 170.585 C-57.602 166.672 -60.315 162.748 -63.03 158.826 C-64.92 156.115 -66.838 153.425 -68.762 150.738 C-69.884 149.139 -71.005 147.538 -72.125 145.938 C-72.652 145.218 -73.179 144.499 -73.722 143.758 C-74.188 143.084 -74.653 142.41 -75.133 141.715 C-75.338 141.427 -75.338 141.427 -76.379 139.969 C-77.605 136.08 -75.317 132.633 -73.586 129.174 C-73.045 128.208 -72.503 127.241 -71.945 126.246 C-71.337 125.155 -70.728 124.065 -70.101 122.941 C-69.443 121.773 -68.784 120.605 -68.125 119.438 C-67.443 118.22 -66.762 117.003 -66.08 115.786 C-61.595 107.781 -57.057 99.805 -52.486 91.849 C-48.646 85.158 -44.88 78.427 -41.125 71.688 C-35.855 62.238 -30.454 52.874 -24.978 43.543 C-21.491 37.591 -18.077 31.606 -14.75 25.562 C-11.386 19.456 -7.954 13.395 -4.438 7.375 C-4.222 7.004 -4.222 7.004 -3.134 5.127 C-2.119 3.401 -1.064 1.697 0 0 Z " fill="#000000" transform="translate(204,1)"/>
<path d="M0 0 C3.115 3.115 4.654 4.795 6.594 8.465 C7.06 9.336 7.527 10.207 8.008 11.105 C8.5 12.04 8.993 12.975 9.5 13.938 C10.572 15.938 11.647 17.938 12.723 19.938 C12.995 20.445 12.995 20.445 14.375 23.012 C16.829 27.526 19.376 31.984 21.938 36.438 C22.938 38.178 23.938 39.919 24.938 41.66 C25.188 42.097 25.188 42.097 26.457 44.305 C29.136 48.984 31.787 53.68 34.438 58.375 C34.978 59.332 35.519 60.289 36.076 61.275 C38.795 66.089 41.509 70.904 44.219 75.723 C49.797 85.633 55.44 95.499 61.188 105.312 C62.912 108.269 64.635 111.226 66.357 114.185 C67.436 116.033 68.517 117.878 69.604 119.722 C71.062 122.202 72.502 124.693 73.938 127.188 C74.369 127.912 74.8 128.636 75.245 129.382 C76.856 132.216 78.009 134.353 77.965 137.656 C76.801 140.484 75.369 142.796 73.625 145.312 C72.902 146.366 72.179 147.419 71.434 148.504 C71.04 149.069 70.647 149.633 70.242 150.215 C68.956 152.063 67.682 153.919 66.41 155.777 C64.081 159.178 61.742 162.573 59.401 165.966 C58.07 167.899 56.741 169.834 55.414 171.77 C47.946 182.661 40.421 193.512 32.858 204.337 C31.175 206.749 29.499 209.165 27.824 211.582 C26.925 212.868 26.025 214.153 25.125 215.438 C24.727 216.016 24.328 216.595 23.918 217.192 C22.995 218.498 22.005 219.756 21 221 C20.34 221 19.68 221 19 221 C16.222 180.765 16.222 180.765 22.387 171.535 C25.504 167.966 28.972 165.001 32.964 162.446 C39.61 157.727 39.61 157.727 40.443 154.038 C40.608 151.646 40.614 149.3 40.566 146.902 C40.572 146.031 40.578 145.16 40.583 144.262 C40.6 141.487 40.584 138.713 40.562 135.938 C40.546 133.159 40.537 130.381 40.552 127.602 C40.562 125.876 40.552 124.15 40.523 122.424 C40.55 116.528 40.55 116.528 42.996 113.662 C43.657 113.114 44.319 112.565 45 112 C45.5 108.438 45.5 108.438 45 105 C43.438 103 43.438 103 41 102 C37.375 102.125 37.375 102.125 34 103 C32 106 32 106 32.188 109.5 C33 113 33 113 34.51 114.448 C36.428 116.445 36.466 117.599 36.656 120.336 C36.719 121.224 36.783 122.112 36.848 123.026 C36.898 124.008 36.948 124.989 37 126 C37.061 127.061 37.121 128.122 37.184 129.216 C37.348 132.686 37.431 136.152 37.5 139.625 C37.554 140.801 37.608 141.976 37.664 143.188 C37.757 149.068 37.675 153.019 33.723 157.582 C32.508 158.749 31.27 159.893 30 161 C29.267 161.754 28.533 162.508 27.777 163.285 C27.474 163.578 27.474 163.578 25.938 165.062 C24.603 166.352 23.293 167.668 22 169 C21.504 169.437 21.007 169.875 20.496 170.326 C16.907 173.837 15.59 176.394 15.433 181.45 C15.48 183.577 15.555 185.703 15.652 187.828 C15.688 190.18 15.721 192.531 15.752 194.883 C15.834 198.55 15.936 202.214 16.078 205.88 C16.688 223.187 14.838 234.29 3.406 247.696 C2 249 2 249 0 249 C-0.444 239.681 -0.78 230.366 -0.984 221.039 C-1.083 216.705 -1.216 212.379 -1.433 208.05 C-2.926 177.609 -2.926 177.609 4.263 168.74 C7.52 165.376 10.984 162.606 14.745 159.833 C18.414 157.012 19.66 155.191 20.337 150.589 C20.539 147.307 20.346 144.149 20.059 140.879 C20 137 20 137 21.922 134.688 C22.608 134.131 23.293 133.574 24 133 C24.888 129.106 25.269 126.806 24 123 C21.41 121.082 20.125 120.99 16.875 121.25 C14 122 14 122 12 124 C11.459 129.683 11.459 129.683 12 132 C12.654 132.4 13.307 132.799 13.98 133.211 C16.358 135.317 16.36 135.893 16.637 138.949 C16.686 140.528 16.701 142.108 16.688 143.688 C16.682 144.504 16.677 145.32 16.672 146.161 C16.492 150.822 16.131 154.063 12.938 157.688 C11.653 158.824 10.339 159.928 9 161 C7.719 162.324 6.448 163.657 5.188 165 C3.48 166.75 3.48 166.75 2 168 C1.34 168 0.68 168 0 168 C0 112.56 0 57.12 0 0 Z " fill="#000000" transform="translate(211,1)"/>
<path d="M0 0 C0.402 0.01 0.402 0.01 2.438 0.062 C3.097 1.713 3.757 3.362 4.438 5.062 C3.188 6.625 3.188 6.625 1.438 8.062 C-0.7 7.811 -2.022 7.603 -3.562 6.062 C-3.688 3.562 -3.688 3.562 -3.562 1.062 C-2.562 0.062 -2.562 0.062 0 0 Z " fill="#000000" transform="translate(249.5625,105.9375)"/>
<path d="M0 0 C2.625 0.938 2.625 0.938 5 2 C4.67 3.98 4.34 5.96 4 8 C1.625 8.125 1.625 8.125 -1 8 C-1.66 7.34 -2.32 6.68 -3 6 C-2.75 3.438 -2.75 3.438 -2 1 C-1.34 0.67 -0.68 0.34 0 0 Z " fill="#000000" transform="translate(186,111)"/>
<path d="M0 0 C0.299 0.113 0.299 0.113 1.812 0.688 C2.438 3.062 2.438 3.062 2.812 5.688 C2.153 6.347 1.493 7.007 0.812 7.688 C-1.812 7.312 -1.812 7.312 -4.188 6.688 C-4.875 4.875 -4.875 4.875 -5.188 2.688 C-3.585 0.241 -2.955 -0.422 0 0 Z " fill="#000000" transform="translate(230.1875,125.3125)"/>
<path d="M0 0 C11.568 -0.228 23.103 0.451 34.652 1.023 C36.843 1.131 39.033 1.238 41.224 1.345 C45.792 1.57 50.36 1.797 54.928 2.026 C60.781 2.319 66.634 2.601 72.487 2.88 C77.001 3.097 81.514 3.322 86.027 3.549 C88.186 3.657 90.345 3.761 92.504 3.863 C95.515 4.005 98.525 4.158 101.535 4.314 C101.979 4.334 101.979 4.334 104.229 4.434 C114.133 4.974 114.133 4.974 117.781 8.934 C118.065 9.347 118.065 9.347 119.5 11.438 C119.844 11.932 119.844 11.932 121.582 14.434 C122.388 15.622 123.194 16.811 124 18 C124.982 19.429 125.965 20.857 126.949 22.285 C130.315 27.18 133.658 32.09 137 37 C144.573 48.113 152.205 59.182 159.897 70.213 C165.272 77.929 170.584 85.687 175.865 93.468 C176.437 94.31 177.008 95.152 177.598 96.02 C178.152 96.838 178.707 97.656 179.278 98.499 C180.484 100.251 181.711 101.989 182.953 103.716 C183.586 104.598 184.219 105.479 184.871 106.387 C185.447 107.177 186.022 107.966 186.615 108.78 C187.942 110.907 188.564 112.55 189 115 C168.488 103.401 148.448 90.999 128.314 78.759 C114.285 70.231 100.245 61.72 86.156 53.291 C82.215 50.932 78.277 48.567 74.339 46.203 C71.47 44.481 68.599 42.76 65.727 41.043 C56.62 35.593 47.548 30.087 38.479 24.573 C29.747 19.264 21 13.979 12.216 8.755 C8.066 6.277 3.949 3.79 0 1 C0 0.67 0 0.34 0 0 Z " fill="#000000" transform="translate(7,136)"/>
<path d="M0 0 C-2.695 2.758 -5.157 4.879 -8.5 6.812 C-9.377 7.325 -10.255 7.837 -11.158 8.365 C-12.096 8.904 -13.034 9.444 -14 10 C-15.989 11.16 -17.977 12.32 -19.965 13.48 C-20.468 13.773 -20.468 13.773 -23.015 15.255 C-27.552 17.907 -32.059 20.606 -36.562 23.312 C-36.942 23.54 -36.942 23.54 -38.861 24.689 C-43.33 27.372 -47.775 30.091 -52.211 32.828 C-58.51 36.711 -64.849 40.526 -71.2 44.324 C-82.509 51.087 -93.79 57.894 -105.047 64.743 C-114.473 70.477 -123.923 76.17 -133.394 81.829 C-139.493 85.477 -145.557 89.179 -151.606 92.909 C-156.932 96.19 -162.271 99.45 -167.614 102.702 C-168.843 103.45 -170.071 104.2 -171.299 104.95 C-173.113 106.059 -174.929 107.164 -176.746 108.27 C-177.805 108.915 -178.864 109.561 -179.955 110.226 C-182.916 111.951 -185.918 113.504 -189 115 C-187.742 111.588 -186.311 108.761 -184.199 105.805 C-183.641 105.016 -183.082 104.228 -182.507 103.415 C-182.207 102.996 -182.207 102.996 -180.688 100.875 C-179.413 99.076 -178.14 97.277 -176.867 95.477 C-176.221 94.564 -175.575 93.652 -174.909 92.712 C-172.004 88.585 -169.155 84.42 -166.312 80.25 C-166.045 79.858 -166.045 79.858 -164.691 77.873 C-163.635 76.326 -162.579 74.778 -161.523 73.23 C-157.803 67.784 -154.06 62.354 -150.321 56.921 C-149.024 55.034 -147.728 53.146 -146.434 51.258 C-138.97 40.376 -131.456 29.529 -123.889 18.72 C-122.599 16.862 -121.325 14.994 -120.064 13.116 C-119.45 12.209 -118.836 11.302 -118.203 10.367 C-117.658 9.551 -117.113 8.735 -116.552 7.894 C-114.652 5.575 -113.071 5.115 -110.121 4.799 C-109.411 4.763 -108.7 4.727 -107.968 4.69 C-107.15 4.646 -106.332 4.603 -105.488 4.558 C-104.594 4.515 -103.699 4.472 -102.778 4.427 C-101.833 4.379 -100.888 4.33 -99.914 4.279 C-96.779 4.118 -93.643 3.963 -90.508 3.809 C-88.324 3.698 -86.139 3.588 -83.955 3.477 C-79.367 3.244 -74.779 3.015 -70.19 2.788 C-64.339 2.499 -58.487 2.202 -52.636 1.904 C-48.119 1.674 -43.601 1.448 -39.083 1.222 C-36.927 1.114 -34.772 1.005 -32.617 0.895 C-21.738 0.343 -10.896 -0.199 0 0 Z " fill="#000000" transform="translate(409,136)"/>
<path d="M0 0 C4.169 1.519 7.889 3.584 11.68 5.859 C12 6.05 12 6.05 13.622 7.014 C15.708 8.256 17.792 9.503 19.875 10.75 C21.325 11.615 22.775 12.48 24.226 13.344 C34.438 19.438 44.607 25.599 54.754 31.801 C63.137 36.921 71.571 41.957 80 47 C90.432 53.242 100.85 59.505 111.216 65.858 C120.895 71.783 130.641 77.597 140.38 83.424 C150.6 89.54 160.804 95.683 170.989 101.857 C172.234 102.612 173.479 103.366 174.725 104.119 C176.481 105.182 178.237 106.247 179.992 107.312 C181.007 107.927 182.021 108.542 183.066 109.176 C189.307 113.056 189.307 113.056 192 115 C192 115.66 192 116.32 192 117 C176.884 117.257 161.768 117.451 146.65 117.57 C139.63 117.627 132.611 117.704 125.591 117.83 C118.816 117.951 112.041 118.015 105.264 118.044 C102.681 118.064 100.097 118.104 97.514 118.163 C76.167 118.634 76.167 118.634 71.695 114.631 C69.599 111.799 68.286 109.265 67 106 C66.083 104.53 65.14 103.075 64.156 101.648 C63.267 100.226 62.382 98.802 61.5 97.375 C60.468 95.725 59.436 94.075 58.402 92.426 C57.857 91.554 57.311 90.682 56.75 89.784 C53.549 84.692 50.306 79.627 47.062 74.562 C46.384 73.502 45.705 72.442 45.005 71.349 C39.201 62.295 33.345 53.275 27.473 44.264 C24.747 40.075 22.036 35.876 19.328 31.676 C16.568 27.402 13.782 23.146 10.98 18.898 C10.291 17.85 9.601 16.801 8.89 15.72 C7.522 13.641 6.15 11.563 4.774 9.489 C4.154 8.545 3.534 7.601 2.895 6.629 C2.336 5.784 1.778 4.939 1.202 4.069 C0 2 0 2 0 0 Z " fill="#000000" transform="translate(3,142)"/>
<path d="M0 0 C-1.718 5.094 -4.619 9.381 -7.5 13.875 C-7.77 14.3 -7.77 14.3 -9.138 16.449 C-12.665 21.973 -16.269 27.441 -19.93 32.877 C-25.46 41.121 -30.753 49.519 -36.094 57.887 C-39.357 62.999 -42.638 68.099 -45.938 73.188 C-49.135 78.119 -52.325 83.055 -55.5 88 C-56.223 89.124 -56.945 90.247 -57.668 91.371 C-58.912 93.305 -60.154 95.24 -61.393 97.176 C-62.864 99.473 -64.338 101.768 -65.812 104.062 C-66.269 104.777 -66.725 105.492 -67.195 106.229 C-67.632 106.907 -68.069 107.586 -68.52 108.285 C-68.711 108.584 -68.711 108.584 -69.679 110.094 C-69.897 110.408 -69.897 110.408 -71 112 C-71.456 112.853 -71.913 113.705 -72.383 114.584 C-76.521 118.404 -80.759 117.658 -86.194 117.568 C-87.336 117.568 -88.478 117.569 -89.654 117.57 C-93.431 117.566 -97.207 117.527 -100.984 117.488 C-103.602 117.479 -106.219 117.472 -108.837 117.467 C-115.024 117.451 -121.211 117.41 -127.398 117.36 C-134.442 117.304 -141.487 117.277 -148.532 117.252 C-163.022 117.199 -177.511 117.111 -192 117 C-192 116.34 -192 115.68 -192 115 C-189.826 113.45 -189.826 113.45 -186.754 111.613 C-186.201 111.28 -185.648 110.946 -185.078 110.603 C-183.243 109.499 -181.403 108.406 -179.562 107.312 C-178.278 106.542 -176.994 105.771 -175.711 105 C-172.432 103.031 -169.149 101.071 -165.864 99.112 C-162.076 96.852 -158.295 94.579 -154.512 92.308 C-152.486 91.092 -150.46 89.877 -148.433 88.663 C-140.668 84.01 -132.923 79.325 -125.188 74.625 C-124.607 74.272 -124.027 73.92 -123.429 73.557 C-119.885 71.403 -116.341 69.248 -112.797 67.093 C-96.226 57.016 -79.643 46.96 -63 37 C-38.84 22.537 -38.84 22.537 -28.562 16.25 C-27.859 15.82 -27.155 15.389 -26.429 14.946 C-22.6 12.602 -18.78 10.245 -14.965 7.879 C-14.55 7.623 -14.55 7.623 -12.449 6.325 C-10.85 5.337 -9.253 4.346 -7.658 3.351 C-7.302 3.131 -7.302 3.131 -5.5 2.02 C-5.185 1.824 -5.185 1.824 -3.594 0.835 C-2 0 -2 0 0 0 Z " fill="#000000" transform="translate(413,142)"/>
<path d="M0 0 C2.5 0.125 2.5 0.125 3.5 1.125 C3.541 2.791 3.543 4.459 3.5 6.125 C1.85 6.785 0.2 7.445 -1.5 8.125 C-3.062 6.875 -3.062 6.875 -4.5 5.125 C-4.081 1.568 -3.711 0.186 0 0 Z " fill="#000000" transform="translate(165.5,149.875)"/>
<path d="M0 0 C0.789 0.001 1.579 0.001 2.392 0.002 C2.845 -0 2.845 -0 5.137 -0.011 C5.635 -0.008 5.635 -0.008 8.156 0.006 C9.203 0.004 10.251 0.002 11.33 0 C14.806 -0.004 18.282 0.007 21.758 0.018 C24.167 0.02 26.576 0.02 28.985 0.02 C34.041 0.021 39.096 0.03 44.152 0.043 C50.638 0.06 57.123 0.064 63.609 0.063 C68.586 0.063 73.564 0.069 78.541 0.076 C80.933 0.079 83.324 0.081 85.715 0.082 C89.058 0.084 92.4 0.093 95.742 0.104 C96.238 0.103 96.238 0.103 98.749 0.102 C99.205 0.104 99.205 0.104 101.511 0.115 C102.301 0.117 103.091 0.119 103.905 0.12 C106.136 0.252 107.977 0.482 110.078 1.249 C111.522 3.435 112.681 5.476 113.828 7.811 C114.171 8.482 114.514 9.152 114.867 9.843 C115.952 11.972 117.016 14.109 118.078 16.249 C118.749 17.58 119.421 18.911 120.094 20.241 C121.769 23.565 123.426 26.897 125.078 30.233 C126.406 32.91 127.743 35.582 129.08 38.254 C129.742 39.576 130.402 40.898 131.061 42.22 C132.809 45.725 134.573 49.221 136.36 52.706 C136.731 53.435 137.102 54.164 137.485 54.915 C138.199 56.316 138.917 57.714 139.641 59.11 C141.119 62.022 142.078 63.936 142.078 67.249 C137.609 66.6 133.809 64.905 129.762 62.995 C129.046 62.663 128.331 62.331 127.593 61.988 C126.044 61.269 124.497 60.548 122.95 59.824 C118.768 57.869 114.577 55.932 110.387 53.995 C109.526 53.596 108.664 53.198 107.777 52.787 C99.251 48.85 90.67 45.041 82.078 41.249 C67.179 34.667 52.367 27.904 37.576 21.082 C37.206 20.912 37.206 20.912 35.336 20.05 C34.614 19.716 33.891 19.383 33.146 19.04 C25.111 15.337 17.043 11.707 8.966 8.095 C4.662 6.165 0.37 4.208 -3.922 2.249 C-1.922 0.249 -1.922 0.249 0 0 Z " fill="#000000" transform="translate(228.92159843444824,263.7511110305786)"/>
<path d="M0 0 C0.875 0.001 1.751 0.002 2.653 0.003 C13.623 0.014 24.593 0.034 35.562 0.062 C35.562 0.723 35.562 1.382 35.562 2.062 C34.988 2.312 34.414 2.561 33.823 2.818 C20.342 8.687 6.928 14.688 -6.438 20.812 C-7.174 21.15 -7.911 21.488 -8.671 21.836 C-11.681 23.215 -14.692 24.595 -17.702 25.976 C-25.608 29.601 -33.521 33.211 -41.438 36.812 C-42.121 37.123 -42.804 37.434 -43.507 37.754 C-53.905 42.482 -64.329 47.146 -74.777 51.76 C-80.32 54.212 -85.842 56.7 -91.34 59.25 C-91.894 59.507 -91.894 59.507 -94.701 60.808 C-96.808 61.787 -98.913 62.772 -101.016 63.763 C-101.949 64.197 -102.882 64.631 -103.844 65.078 C-104.662 65.463 -105.48 65.847 -106.322 66.243 C-108.438 67.062 -108.438 67.062 -111.438 67.062 C-110.105 62.785 -108.466 58.876 -106.457 54.874 C-106.164 54.287 -105.871 53.701 -105.569 53.098 C-104.61 51.18 -103.645 49.266 -102.68 47.352 C-102.01 46.015 -101.34 44.678 -100.67 43.342 C-98.915 39.838 -97.155 36.337 -95.393 32.837 C-93.594 29.259 -91.799 25.678 -90.004 22.098 C-86.486 15.084 -82.963 8.072 -79.438 1.062 C-52.954 0.139 -26.497 -0.026 0 0 Z " fill="#000000" transform="translate(156.4375,263.9375)"/>
<path d="M0 0 C-1.384 4.76 -3.461 8.755 -6.062 12.938 C-6.887 14.288 -7.711 15.638 -8.535 16.988 C-8.952 17.666 -9.368 18.343 -9.797 19.042 C-11.548 21.893 -13.276 24.758 -15 27.625 C-15.345 28.198 -15.69 28.771 -16.045 29.362 C-21.181 37.927 -26.2 46.562 -31.236 55.186 C-31.601 55.809 -31.965 56.433 -32.341 57.075 C-33.346 58.795 -34.351 60.515 -35.355 62.235 C-36.518 64.189 -37.739 66.108 -39 68 C-40.98 68.369 -40.98 68.369 -43.454 68.361 C-43.923 68.363 -43.923 68.363 -46.293 68.373 C-47.324 68.362 -48.355 68.352 -49.417 68.341 C-50.499 68.341 -51.582 68.341 -52.698 68.342 C-56.291 68.34 -59.884 68.316 -63.477 68.293 C-65.962 68.287 -68.448 68.283 -70.934 68.28 C-76.817 68.27 -82.699 68.246 -88.582 68.216 C-95.935 68.179 -103.288 68.163 -110.641 68.146 C-123.761 68.114 -136.88 68.064 -150 68 C-147.043 64.802 -143.717 63.39 -139.75 61.75 C-133.75 59.234 -127.841 56.547 -121.951 53.784 C-114.928 50.492 -107.874 47.271 -100.812 44.062 C-100.118 43.747 -99.424 43.431 -98.708 43.105 C-86.594 37.598 -74.439 32.185 -62.271 26.798 C-52.436 22.442 -42.634 18.026 -32.875 13.5 C-17.811 6.516 -17.811 6.516 -10.562 3.25 C-9.828 2.914 -9.094 2.578 -8.337 2.232 C-5.383 0.91 -3.276 0 0 0 Z " fill="#000000" transform="translate(200,269)"/>
<path d="M0 0 C4.364 0.659 8.142 2.231 12.133 4.035 C12.829 4.345 13.526 4.655 14.244 4.975 C16.54 5.999 18.832 7.031 21.125 8.062 C22.74 8.785 24.356 9.508 25.971 10.23 C38.454 15.819 50.896 21.498 63.327 27.201 C75.99 33.008 88.694 38.717 101.415 44.397 C105.173 46.077 108.928 47.762 112.684 49.449 C113.965 50.025 115.247 50.6 116.529 51.176 C118.407 52.019 120.284 52.862 122.162 53.707 C127.873 56.274 133.584 58.836 139.34 61.301 C140.102 61.628 140.864 61.955 141.649 62.292 C143.571 63.111 145.496 63.921 147.422 64.73 C150 66 150 66 151 68 C136.649 68.234 122.298 68.409 107.945 68.518 C101.28 68.57 94.617 68.641 87.952 68.754 C81.52 68.863 75.089 68.923 68.656 68.949 C66.203 68.967 63.75 69.003 61.297 69.057 C57.858 69.13 54.424 69.14 50.984 69.135 C49.971 69.171 48.959 69.207 47.915 69.244 C43.557 69.181 41.032 69.031 37.868 65.869 C36.051 63.314 34.497 60.752 33 58 C32.039 56.377 31.077 54.755 30.113 53.133 C29.175 51.466 28.242 49.797 27.312 48.125 C23.24 40.9 19.094 33.729 14.812 26.625 C14.319 25.805 13.825 24.985 13.317 24.14 C10.97 20.248 8.613 16.363 6.246 12.484 C5.823 11.787 5.4 11.091 4.964 10.373 C4.176 9.076 3.385 7.782 2.589 6.491 C0 2.225 0 2.225 0 0 Z " fill="#000000" transform="translate(216,269)"/>
</svg>